<svg xmlns="http://www.w3.org/2000/svg" width="128" height="128" viewBox="0 0 128 128" role="img" aria-label="City Center of Media logo">
  <defs>
    <linearGradient id="g" x1="0" y1="0" x2="1" y2="1">
      <stop offset="0" stop-color="#ff3b3b"/>
      <stop offset="1" stop-color="#c80000"/>
    </linearGradient>
  </defs>
  <rect width="128" height="128" rx="20" fill="#fff"/>
  <g transform="translate(16,16)">
    <path d="M18 70c14-8 20-20 20-34 0-9-3-16-8-22l10-6 10 6c-5 6-8 13-8 22 0 14 6 26 20 34l-5 10c-12-5-22-5-34 0z" fill="url(#g)"/>
    <path d="M54 26c8-8 20-12 30-12" stroke="#d70000" stroke-width="6" fill="none" stroke-linecap="round"/>
    <path d="M54 42c10-10 26-14 42-14" stroke="#ff2a2a" stroke-width="6" fill="none" stroke-linecap="round"/>
    <text x="8" y="92" font-family="Inter,Segoe UI,Arial" font-weight="700" font-size="16" fill="#d70000">Media</text>
  </g>
</svg>
